<svg xmlns="http://www.w3.org/2000/svg" xml:space="preserve" width="1278.75" height="312.5" viewBox="0 0 1278.75 312.5"><defs><clipPath id="a" clipPathUnits="userSpaceOnUse"><path d="M0 250h1023V0H0v250Z"/></clipPath></defs><path fill="#e60023" d="M503.745 112.641h40.39v126.867h-40.39V112.64z"/><g clip-path="url(#a)" transform="matrix(1.25 0 0 -1.25 0 312.5)"><path fill="#e60023" d="M442.055 159.887h31.122v-13.876h.594c7.533 10.903 17.246 16.85 31.32 16.85 22.202 0 35.285-15.859 35.285-38.457v-66.01h-32.311v59.468c0 10.705-5.352 18.04-15.858 18.04-10.704 0-17.841-8.92-17.841-21.409V58.394h-32.311v101.493ZM438.533 187.04c0 10.706-8.678 19.383-19.382 19.383s-19.382-8.677-19.382-19.382c0-10.704 8.678-19.381 19.382-19.381s19.382 8.677 19.382 19.38M767.626 161.353c-.922.083-1.979.12-3.216.12-12.29 0-20.615-5.352-27.752-17.444h-.594v15.858H705.14V58.395h32.311v45.592c0 21.125 11.7 30.914 30.175 29.206v28.16ZM926.19 122.423c-12.885 2.378-24.382 3.369-24.382 10.505 0 6.344 6.146 9.317 14.074 9.317 8.92 0 15.066-2.775 16.255-11.894h29.735c-1.586 20.02-17.048 32.51-45.79 32.51-23.987 0-43.81-11.101-43.81-32.51 0-23.786 18.832-28.544 36.475-31.518 13.479-2.38 25.769-3.37 25.769-12.488 0-6.542-6.145-10.11-15.858-10.11-9.745 0-16.19 4.123-18.166 12.488h-30.79c2.267-20.864 20.58-33.5 49.154-33.5 26.563 0 46.187 11.497 46.187 33.698 0 25.969-21.012 30.528-38.853 33.502M817.75 139.867c10.505 0 18.037-7.731 19.227-19.824h-40.042c2.18 12.093 8.524 19.824 20.814 19.824m1.784-61.252c-13.282 0-20.814 8.523-22.797 22.2h72.95c.197 20.616-5.749 38.259-17.842 49.359-8.722 7.929-20.219 12.687-34.69 12.687-30.924 0-52.134-23.192-52.134-53.522 0-30.724 20.616-53.918 54.116-53.918 12.884 0 23.193 3.37 31.717 9.317 8.92 6.145 14.867 14.867 17.047 23.985h-31.518c-2.776-6.343-8.325-10.108-16.849-10.108M1021.95 82.327c-1.498-.059-3.508-.146-5.355-.146-6.939 0-11.299 1.983-11.299 9.912v47.575h16.653v20.22h-16.653V192h-31.519v-32.113h-9.917v-20.219h9.917V85.155c0-21.806 13.48-27.95 32.312-27.95 7.185 0 12.616.538 15.86 1.171v23.951ZM598.078 82.281c-1.289-.05-2.777-.1-4.167-.1-6.937 0-11.299 1.983-11.299 9.912v47.575h15.466v20.22h-15.466V192h-31.518v-32.113h-10.51v-20.219h10.51V85.155c0-21.806 13.48-27.95 32.311-27.95 6.372 0 11.361.424 14.673.961v24.115Z"/><path fill="#e60023" d="M668.458 120.043c-1.189 12.092-8.723 19.824-19.229 19.824-12.29 0-18.633-7.732-20.814-19.824h40.043Zm-71.957-10.704c0 30.329 21.21 53.52 52.134 53.52 14.47 0 25.968-4.756 34.69-12.685 12.092-11.101 18.038-28.743 17.84-49.36h-72.947c1.981-13.676 9.514-22.2 22.796-22.2 8.523 0 14.074 3.766 16.848 10.109h31.52c-2.182-9.118-8.128-17.84-17.049-23.986-8.523-5.946-18.83-9.316-31.716-9.316-33.5 0-54.116 23.193-54.116 53.918M346.882 133.522c12.688 0 19.823 7.533 19.823 18.833 0 11.298-7.334 18.236-19.822 18.236h-24.78v-37.069h24.78Zm-57.492 66.605h56.11c17.245 0 29.932-4.757 38.654-13.083 9.12-8.523 14.273-20.616 14.273-34.888 0-27.157-18.832-46.386-47.972-46.386h-28.352V58.394H289.39v141.733z"/><path fill="#fff" d="M245.034 125c0-67.374-54.618-121.992-121.992-121.992S1.05 57.626 1.05 125c0 67.375 54.618 121.992 121.992 121.992S245.034 192.375 245.034 125"/><path fill="#e60023" d="M123.042 246.992C55.668 246.992 1.05 192.374 1.05 125c0-51.682 32.155-95.863 77.535-113.638-1.066 9.652-2.03 24.496.423 35.033 2.217 9.521 14.305 60.638 14.305 60.638s-3.649 7.308-3.649 18.112c0 16.963 9.832 29.627 22.074 29.627 10.408 0 15.435-7.814 15.435-17.184 0-10.467-6.664-26.116-10.103-40.618-2.874-12.142 6.09-22.044 18.065-22.044 21.682 0 38.35 22.862 38.35 55.863 0 29.21-20.989 49.631-50.958 49.631-34.71 0-55.085-26.035-55.085-52.94 0-10.486 4.04-21.729 9.08-27.84.996-1.209 1.142-2.267.845-3.5-.926-3.853-2.984-12.139-3.388-13.835-.532-2.233-1.768-2.707-4.08-1.63-15.236 7.091-24.762 29.367-24.762 47.26 0 38.481 27.96 73.822 80.605 73.822 42.32 0 75.206-30.156 75.206-70.457 0-42.043-26.509-75.879-63.303-75.879-12.362 0-23.983 6.422-27.96 14.008 0 0-6.118-23.292-7.6-29-2.755-10.596-10.19-23.878-15.163-31.98 11.414-3.535 23.544-5.44 36.12-5.44 67.375 0 121.993 54.617 121.993 121.991s-54.618 121.992-121.993 121.992"/></g></svg>