<?xml version="1.0" encoding="UTF-8"?>
<svg xmlns="http://www.w3.org/2000/svg" version="1.1" viewBox="0 0 581.3 198.8">
  <!-- Generator: Adobe Illustrator 28.7.1, SVG Export Plug-In . SVG Version: 1.2.0 Build 142)  -->
  <g>
    <g id="Layer_1">
      <g>
        <path d="M135.2,105.6c-.2-25.2,20.6-37.2,21.5-37.8-11.7-17.1-29.9-19.4-36.4-19.7-15.5-1.6-30.2,9.1-38.1,9.1s-20-8.9-32.8-8.6c-16.9.2-32.4,9.8-41.2,24.9-17.5,30.4-4.5,75.4,12.6,100.1,8.4,12.1,18.3,25.7,31.4,25.2,12.6-.5,17.4-8.2,32.6-8.2s19.5,8.2,32.8,7.9c13.5-.3,22.1-12.3,30.4-24.4,9.5-14,13.5-27.6,13.7-28.3-.3-.1-26.4-10.1-26.7-40.2"/>
        <path d="M110.2,31.8c7-8.4,11.6-20.1,10.4-31.8-10,.4-22.1,6.7-29.3,15.1-6.4,7.4-12.1,19.3-10.5,30.7,11.1.9,22.5-5.7,29.4-14.1M222.9,130.4l-11.5,34.9h-14.8l37.7-110.9h17.3l37.8,110.9h-15.3l-11.8-34.9h-39.3ZM259.2,119.2l-10.8-31.9c-2.5-7.2-4.1-13.8-5.8-20.2h-.3c-1.7,6.6-3.5,13.3-5.6,20.1l-10.8,32.1h33.3ZM300.5,111.6c0-10.2-.3-18.4-.7-26h13l.7,13.7h.3c5.9-9.7,15.3-15.5,28.3-15.5,19.3,0,33.7,16.3,33.7,40.5s-17.4,42.8-36.2,42.8-19.7-4.6-24.5-12.5h-.3v43.3h-14.3v-86.2ZM314.8,132.8c0,2.2.3,4.1.7,5.9,2.6,10,11.3,17,21.7,17,15.3,0,24.2-12.5,24.2-30.8s-8.4-29.6-23.7-29.6-19.1,7.1-21.9,17.9c-.5,1.8-1,4-1,5.9v13.6h0ZM390.8,111.6c0-10.2-.3-18.4-.7-26h13l.7,13.7h.3c5.9-9.7,15.3-15.5,28.3-15.5,19.3,0,33.7,16.3,33.7,40.5s-17.4,42.8-36.2,42.8-19.7-4.6-24.5-12.5h-.3v43.3h-14.3v-86.2ZM405.2,132.8c0,2.2.3,4.1.7,5.9,2.6,10,11.3,17,21.7,17,15.3,0,24.2-12.5,24.2-30.8s-8.4-29.6-23.7-29.6-19.1,7.1-21.9,17.9c-.5,1.8-1,4-1,5.9v13.6h0ZM481.2,48.4h14.5v116.8h-14.5V48.4ZM524.8,128.1c.3,19.6,12.8,27.7,27.3,27.7s16.6-1.8,22-4.1l2.5,10.4c-5.1,2.3-13.8,4.9-26.5,4.9-24.5,0-39.2-16.1-39.2-40.1s14.1-43,37.3-43,32.9,22.9,32.9,37.5-.3,5.3-.5,6.7h-55.9ZM567.2,117.7c.2-9.2-3.8-23.5-20.1-23.5s-21.1,13.5-22.2,23.5h42.3Z"/>
      </g>
    </g>
  </g>
</svg>